# xmcd
#
# Track frame offsets:
# 150
# 25005
# 47290
# 62760
# 81987
# 95710
# 108530
# 121832
# 133795
# 151882
# 164560
# 180445
# 199270
# 209010
# 222417
# 232265
# 244787
# 261052
# 271717
# 291242
# 302085
# 313805
#
# Disc length: 4416 seconds
#
#
# Revision: 1
# Processed by: cddbd v1.5.2PL0 Copyright (c) Steve Scherf et al.
# Submitted via: FreeRIP 2.96 
#
DISCID=47113e16
DTITLE=Various Artist - Evergreen Memories II
DYEAR=1900
DGENRE=
TTITLE0=Louis Armstrong - Otehi-Tchor-Ni-Ya
TTITLE1=Mary Hopkyn - Those Were The Days
TTITLE2=Oscar Benton - Different Dreams
TTITLE3=Yane Birkin and Serge Gainsbourg - Je t'aime ... Moi non plus
TTITLE4=The Brotherhood Of Man - Save Your Kisses For Me
TTITLE5=Carpenters - Please Mr.Postman
TTITLE6=Roy Orbison - Oh Pretty Woman
TTITLE7=Creedance Clearwater Revival - Have You Ever Seen The Rain?
TTITLE8=Frankie Miller - Jealousy
TTITLE9=John Travolta - Olivia Newton John - You Are The One That I Want
TTITLE10=Roy Orbison - You've Got It
TTITLE11=Ray Charles - I Can't Stop Loving You
TTITLE12=Brenda Lee - I'm Sorry
TTITLE13=Louis Prima - Buona Sera
TTITLE14=Surfaris - Wipeout
TTITLE15=Meinz - Just Like Eddie
TTITLE16=The Righteous Brothers - Unchained Melody
TTITLE17=Ritchie Valens - Donna
TTITLE18=Barry and Eileen - If You Go
TTITLE19=Bruce Channel - Hey Baby
TTITLE20=Pat Boone - Speedy Gonzales
TTITLE21=Trini Lopez - This Land Is Your Land
EXTD=
EXTT0=
EXTT1=
EXTT2=
EXTT3=
EXTT4=
EXTT5=
EXTT6=
EXTT7=
EXTT8=
EXTT9=
EXTT10=
EXTT11=
EXTT12=
EXTT13=
EXTT14=
EXTT15=
EXTT16=
EXTT17=
EXTT18=
EXTT19=
EXTT20=
EXTT21=
PLAYORDER=
